# xmcd CD database file
#
# Track frame offsets:
#	150
#	31057
#	68712
#	105857
#	138660
#	176975
#
# Disc length: 2634 seconds
#
# Revision: 0
# Processed by: cddbd v1.4PL0 Copyright (c) Steve Scherf et al.
# Submitted via: CDex 1.50Beta7
#
DISCID=4a0a4806
DTITLE=Makoto Ozone - Ozone
DYEAR=1984
DGENRE=Jazz
TTITLE0=Crystal love
TTITLE1=I need you hear
TTITLE2=Flight
TTITLE3=Endless season Part I
TTITLE4=Endless season Part II
TTITLE5=Improvisation
EXTD=YEAR: 1984
EXTT0=
EXTT1=
EXTT2=
EXTT3=
EXTT4=
EXTT5=
PLAYORDER=
